Patient4_TMGait_0pt5_02_left_41_EMG.mot
version=1
nRows=13
nColumns=33
inDegrees=no
endheader
time	1LAddLong	2LGlutMax	3LGlutMed	4LIliopsoas	5LSemiMemb	6LBicFemLong	7LRecFem	8LVastMed	9LVastLat	10LGasMed	11LTibAnt	12lTibPost	13LPeroneusLong	14LSol	15LExtDigLong	16LFlexDigLong	17RAddLong	18RGlutMax	19RGlutMed	20RIliopsoas	21RSemiMemb	22RBicFemLong	23RRecFem	24RVastMed	25RVastLat	26RGasMed	27RTibAnt	28RTibPost	29RPeroneusLong	30RSol	31RExtDigLong	32RFlexDigLong
52.89	0.014191	0.059814	-0.092773	0.007324	-0.009003	-0.026245	0.018768	0.027161	0.096741	0.02121	0.008087	0.007477	0.020294	-0.037079	0.083466	-0.001221	-0.025024	-0.038147	0.92987	0.086365	0.10162	0.25848	0.14938	-0.080566	-0.003357	-0.001526	-0.006409	0.020752	0.30655	0.14618	-0.004272	0.009308
52.891	0.008545	0.059052	-0.10696	0.001526	-0.007629	-0.043182	0.007935	0.022888	0.1355	0.016937	-0.014801	-0.002899	0.024414	-0.036011	0.070801	-0.004883	-0.023956	-0.093536	0.17364	0.15167	0.11169	0.2034	-0.10971	-0.14481	-0.12161	0.004272	0.007935	0.13641	-0.05127	-0.37659	-0.002899	0.006256
52.892	0.012054	0.071564	-0.12512	0.017395	-0.012207	-0.023041	-0.001373	0.022736	0.15701	0.010681	-0.086975	-0.000458	0.019226	-0.00824	0.10284	-0.002136	-0.01236	-0.16342	-0.1474	0.12146	-0.014954	0.16357	-0.12878	-0.035553	-0.16769	0.013733	-0.13748	0.021362	0.3891	-0.48157	-0.000153	0.001678
52.893	0.014343	0.070801	-0.095825	0.022888	-0.010834	-0.021057	0.022888	0.024872	0.18249	0.013733	-0.11581	-0.007629	0.01709	0.029755	0.080719	0.004425	-0.011292	-0.1294	-0.031281	0.030823	-0.084839	0.12955	-0.051422	0.27252	-0.16541	0.023499	0.076294	-0.012207	0.51361	-0.40283	-0.000458	-0.002747
52.894	0.002747	0.079498	-0.082855	0.010834	-0.012207	-0.006561	0.007782	0.017853	0.18707	-0.01358	-0.11108	-0.000458	0.034943	0.03067	0.003357	0.010376	-0.007172	-0.12619	-0.1474	0.015717	-0.045013	0.074158	0.011444	0.14603	-0.103	0.023041	0.29282	-0.011139	0.075531	-0.20447	0.002289	-0.000916
52.895	0.016937	0.09903	-0.015411	-0.012512	-0.007935	-0.027771	0.005493	0.024567	0.19974	0.01358	-0.032959	-0.005035	0.049286	0.023804	0.14465	0.013733	-0.023041	-0.1236	-0.010376	-0.026398	-0.043793	0.080414	-0.38101	0.27863	0.23346	-0.005341	0.42984	-0.014343	-0.36346	-0.18143	-0.003052	0.000305
52.896	0.007782	0.11185	0.02594	-0.010529	-0.00824	-0.022583	0.001678	0.028381	0.21713	0.007782	0.12802	-0.000916	0.012054	0.072784	0.21271	0.004883	-0.023499	-0.10452	-0.46417	0.022125	-0.024872	0.018311	-0.47821	0.31723	0.38254	-0.030365	0.38208	-0.011444	-0.3038	-0.24475	-0.002594	0.002594
52.897	0.006409	0.093231	-0.000305	-0.002136	-0.005798	-0.035095	-0.009918	0.0177	0.23544	0.000305	0.18433	-0.000763	0.020142	0.066528	0.58838	0.012817	0.00351	-0.090637	-0.35446	0.006409	-0.027313	-0.045013	-0.19486	0.26474	0.27542	0.014496	0.33737	-0.009613	0.48889	-0.25482	-0.001831	0.008698
52.898	0.014954	0.09201	0.01358	-0.012817	-0.010071	-0.03067	-0.003204	0.02182	0.23758	-0.051575	0.15198	-0.001068	0.05722	0.050812	-0.014038	0.012512	0.017548	-0.10864	-0.20889	0.03006	-0.017548	-0.035248	-0.10696	0.14679	0.15915	0.031433	0.30289	-0.005951	0.26199	-0.28854	-0.002289	0.004425
52.899	0.014496	0.074921	0.024719	-0.004425	-0.002594	-0.036011	-0.014496	0.021057	0.25345	-0.028534	0.16174	0.00061	0.023956	-0.016022	-0.2005	0.00412	0.010071	-0.15595	-0.20035	0.004883	-0.032806	-0.059662	-0.001068	-0.001678	0.079041	0.023804	0.17731	-0.001221	-0.1268	-0.19486	-0.002289	0.001526
52.9	0.005951	0.044556	0.006409	0.001068	0.00061	-0.024719	-0.006866	0.02243	0.25559	-0.023804	0.16235	-0.002289	0.000153	-0.048828	-0.2034	0.001526	0.010834	-0.1239	0.029449	-0.019226	-0.052643	-0.03479	0.044708	-0.055389	0.050354	0.014343	-0.22797	-0.004425	-0.62378	-0.084686	0.000916	-0.000305
52.901	0.016785	0.039825	0.02182	0.016327	0.005035	-0.018311	-0.003052	0.019073	0.25162	-0.03891	0.1564	-0.00061	0.04364	0.00473	-0.17303	0.006866	0.003967	-0.074463	0.1712	-0.019989	-0.042114	0.034485	0.045166	-0.032959	0.044861	0.011292	-0.51895	-0.002289	-1.2909	0.036163	-0.001984	0.000305
52.902	-0.001373	0.063324	-0.051575	0.001068	0.006256	0.006561	-0.012512	0.024414	0.26367	-0.064545	0.00061	-0.010834	0.11185	0.041656	-0.21042	0.008087	-0.001831	-0.12161	0.24521	-0.074005	-0.027771	-0.019379	0.060425	-0.088959	0.044861	0.010834	-0.48828	-0.002136	-0.56656	-0.059967	0.001831	0.000916
